<?xml version="1.0" standalone="no"?>
<!DOCTYPE svg PUBLIC "-//W3C//DTD SVG 20010904//EN"
 "http://www.w3.org/TR/2001/REC-SVG-20010904/DTD/svg10.dtd">
<svg version="1.0" xmlns="http://www.w3.org/2000/svg"
 width="225.000000pt" height="225.000000pt" viewBox="0 0 225.000000 225.000000"
 preserveAspectRatio="xMidYMid meet">

<g transform="translate(0.000000,225.000000) scale(0.100000,-0.100000)"
fill="#000000" stroke="none">
<path d="M1610 1305 c0 -8 5 -15 10 -15 6 0 10 7 10 15 0 8 -4 15 -10 15 -5 0
-10 -7 -10 -15z"/>
<path d="M950 1284 c0 -8 5 -12 10 -9 6 3 10 10 10 16 0 5 -4 9 -10 9 -5 0
-10 -7 -10 -16z"/>
<path d="M990 1284 c0 -8 5 -12 10 -9 6 3 10 10 10 16 0 5 -4 9 -10 9 -5 0
-10 -7 -10 -16z"/>
<path d="M945 1244 c-21 -22 -15 -46 15 -61 39 -20 455 -17 475 3 19 20 19 54
0 54 -8 0 -15 -9 -15 -20 0 -18 -7 -20 -75 -20 -68 0 -75 2 -75 20 0 11 -4 20
-10 20 -5 0 -10 -9 -10 -20 0 -19 -7 -20 -120 -20 l-120 0 0 30 c0 25 -4 30
-24 30 -14 0 -32 -7 -41 -16z m45 -24 c0 -11 -7 -20 -15 -20 -15 0 -21 21 -8
33 12 13 23 7 23 -13z"/>
<path d="M1563 1245 c-3 -9 0 -22 7 -30 11 -13 6 -15 -34 -15 -34 0 -46 4 -46
15 0 8 -4 15 -10 15 -5 0 -10 -12 -10 -26 0 -15 -8 -33 -17 -40 -27 -19 -7
-29 21 -10 21 13 55 16 195 16 102 0 172 -4 176 -10 9 -15 41 -12 55 5 17 21
3 55 -24 55 -12 0 -26 -4 -31 -9 -11 -11 -195 -20 -195 -10 0 4 7 12 15 19 22
19 6 31 -49 35 -35 3 -48 0 -53 -10z m69 -27 c-9 -9 -15 -9 -24 0 -9 9 -7 12
12 12 19 0 21 -3 12 -12z m248 -33 c0 -8 -4 -15 -9 -15 -13 0 -22 16 -14 24
11 11 23 6 23 -9z"/>
<path d="M1225 1150 c-3 -5 1 -10 9 -10 9 0 16 5 16 10 0 6 -4 10 -9 10 -6 0
-13 -4 -16 -10z"/>
<path d="M1265 1150 c-3 -5 1 -10 9 -10 9 0 16 5 16 10 0 6 -4 10 -9 10 -6 0
-13 -4 -16 -10z"/>
<path d="M1400 1150 c0 -5 7 -10 16 -10 8 0 12 5 9 10 -3 6 -10 10 -16 10 -5
0 -9 -4 -9 -10z"/>
<path d="M940 1091 c0 -10 -3 -33 -6 -50 -5 -24 -3 -31 10 -31 9 0 16 8 16 20
0 11 4 20 9 20 5 0 11 -9 14 -20 7 -27 26 -25 36 2 l8 23 7 -23 c10 -32 38
-29 31 3 -3 14 -7 36 -10 50 -7 31 -45 36 -45 5 0 -11 -4 -20 -10 -20 -5 0
-10 9 -10 20 0 15 -7 20 -25 20 -18 0 -25 -5 -25 -19z"/>
<path d="M1101 1073 c-7 -21 -14 -43 -17 -49 -3 -7 14 -11 49 -11 l54 0 -15
48 c-13 39 -20 49 -37 49 -16 0 -25 -10 -34 -37z m36 -25 c-3 -8 -6 -5 -6 6
-1 11 2 17 5 13 3 -3 4 -12 1 -19z"/>
<path d="M1216 1095 c-34 -34 -8 -85 43 -85 31 0 51 16 51 42 0 13 -8 18 -26
18 -21 0 -24 -3 -19 -21 5 -15 3 -20 -6 -17 -8 3 -15 14 -17 26 -3 19 1 22 28
22 21 0 30 4 28 13 -7 19 -63 20 -82 2z"/>
<path d="M1330 1060 c0 -36 4 -50 14 -50 7 0 16 9 19 20 3 11 10 20 16 20 6 0
11 -9 11 -20 0 -13 7 -20 20 -20 17 0 20 7 20 50 0 43 -3 50 -20 50 -11 0 -20
-7 -20 -15 0 -8 -7 -15 -15 -15 -8 0 -15 7 -15 15 0 8 -7 15 -15 15 -11 0 -15
-12 -15 -50z"/>
<path d="M1450 1060 c0 -36 4 -50 14 -50 8 0 17 6 20 13 5 10 7 10 12 0 3 -7
15 -13 26 -13 17 0 18 3 8 14 -8 11 -9 20 -2 33 17 29 -3 53 -43 53 l-35 0 0
-50z"/>
<path d="M1560 1060 c0 -49 1 -50 30 -50 17 0 30 5 30 10 0 6 -7 10 -15 10 -8
0 -15 5 -15 10 0 6 7 10 15 10 8 0 15 5 15 10 0 6 -7 10 -15 10 -8 0 -15 5
-15 10 0 6 7 10 15 10 8 0 15 5 15 10 0 6 -13 10 -30 10 -29 0 -30 -1 -30 -50z"/>
<path d="M1640 1060 l0 -51 43 3 42 3 0 45 0 45 -42 3 -43 3 0 -51z m60 -20
c0 -5 -4 -10 -9 -10 -6 0 -13 5 -16 10 -3 6 1 10 9 10 9 0 16 -4 16 -10z"/>
<path d="M1750 1059 c0 -42 3 -50 17 -47 13 2 18 15 20 51 2 41 0 47 -17 47
-17 0 -20 -7 -20 -51z"/>
<path d="M1816 1063 c-9 -26 -16 -47 -16 -48 0 0 25 -1 55 -1 37 -1 54 2 51
10 -3 6 -10 28 -17 49 -9 28 -18 37 -35 37 -17 0 -25 -10 -38 -47z m41 -15
c-3 -8 -6 -5 -6 6 -1 11 2 17 5 13 3 -3 4 -12 1 -19z"/>
</g>
</svg>
